<svg width="70" height="70" viewBox="0 0 70 70" fill="none" xmlns="http://www.w3.org/2000/svg">
<path d="M20.9832 44.6567C25.0352 46.1041 28.078 47.5719 30.7299 48.9201C30.7299 38.1963 30.7299 20.3368 30.7299 20.3368C30.7299 20.3368 29.8819 3.37491 40.9069 3.37491C40.9069 3.37491 17.1602 -5.10748 17.1602 16.0967V43.7744C18.4129 43.9056 19.694 44.1966 20.9832 44.6567Z" fill="#3563E9"/>
<mask id="mask0_8848_11723" style="mask-type:luminance" maskUnits="userSpaceOnUse" x="3" y="22" width="65" height="47">
<path d="M3.16211 22.7734H67.1997V68.6934H3.16211V22.7734Z" fill="white"/>
</mask>
<g mask="url(#mask0_8848_11723)">
<path d="M67.0682 43.306C65.9577 32.7178 57.444 24.1851 46.8623 23.022C46.777 23.0126 46.6909 23.0031 46.6049 22.9951C40.8102 22.4227 35.8176 27.0667 35.8176 32.8899V40.1669C37.7251 37.2947 41.0465 35.4397 44.7834 35.614C49.9839 35.8568 54.2633 40.1699 54.4682 45.3717C54.6965 51.1693 50.0473 55.9578 44.2993 55.9578C35.3932 55.9578 32.0011 51.294 20.1267 47.0525C8.25219 42.8109 3.16406 56.3836 3.16406 56.3836C9.10167 52.9908 16.7346 57.2309 21.8234 59.7757C26.913 62.3205 33.8612 66.1625 33.8612 66.1625C36.9923 67.7695 40.5375 68.6817 44.2993 68.6817C57.7619 68.6803 68.512 57.0617 67.0682 43.306Z" fill="#3563E9"/>
</g>
<path d="M21.8232 59.7755C20.4283 59.0777 18.8387 58.2559 17.1499 57.4961C17.0493 59.7098 16.1371 66.4918 8.67773 66.1367C8.67773 66.1367 24.5612 73.4459 29.3554 63.7101C27.0469 62.469 24.2301 60.9786 21.8232 59.7755Z" fill="#3563E9"/>
<path d="M45.638 19.5552C46.0121 19.5552 46.392 19.5734 46.7726 19.6113L47.0504 19.6405C48.6801 19.8206 50.258 20.1786 51.7791 20.6657C51.0747 19.1213 49.5048 17.1847 45.9946 16.7297C39.9921 15.9516 35.8184 20.3988 35.8184 25.1297C35.8184 25.1297 35.8432 25.0939 35.8898 25.0276C37.9271 21.7478 41.5307 19.5552 45.638 19.5552Z" fill="#3563E9"/>
</svg>
